<?xml version="1.0" encoding="UTF-8"?>
<svg xmlns="http://www.w3.org/2000/svg" xmlns:xlink="http://www.w3.org/1999/xlink" viewBox="0 0 48 48" width="48px" height="48px">
<g id="surface35656640">
<path style=" stroke:none;fill-rule:nonzero;fill:rgb(100%,100%,100%);fill-opacity:1;" d="M 22.5 6 C 22.222656 6 22 6.222656 22 6.5 L 22 9.5 C 22 9.777344 22.222656 10 22.5 10 L 25.5 10 C 25.777344 10 26 9.777344 26 9.5 L 26 6.5 C 26 6.222656 25.777344 6 25.5 6 Z M 10.5 12 C 10.222656 12 10 12.222656 10 12.5 L 10 15.5 C 10 15.777344 10.222656 16 10.5 16 L 13.5 16 C 13.777344 16 14 15.777344 14 15.5 L 14 12.5 C 14 12.222656 13.777344 12 13.5 12 Z M 16.5 12 C 16.222656 12 16 12.222656 16 12.5 L 16 15.5 C 16 15.777344 16.222656 16 16.5 16 L 19.5 16 C 19.777344 16 20 15.777344 20 15.5 L 20 12.5 C 20 12.222656 19.777344 12 19.5 12 Z M 22.5 12 C 22.222656 12 22 12.222656 22 12.5 L 22 15.5 C 22 15.777344 22.222656 16 22.5 16 L 25.5 16 C 25.777344 16 26 15.777344 26 15.5 L 26 12.5 C 26 12.222656 25.777344 12 25.5 12 Z M 37.480469 14.300781 L 37.027344 14.953125 C 36.457031 15.824219 36.046875 16.789062 35.800781 17.800781 C 35.34375 19.730469 35.621094 21.546875 36.609375 23.097656 C 35.417969 23.757812 33.386719 23.984375 33 24 L 2 24 C 0.894531 24 0 24.894531 0 26 C 0 28 0.433594 30.925781 1.386719 33.515625 C 2.476562 36.359375 4.097656 38.453125 6.207031 39.738281 C 8.566406 41.175781 12.40625 42 16.757812 42 C 18.722656 42.007812 20.683594 41.828125 22.613281 41.472656 C 25.300781 40.980469 27.886719 40.046875 30.261719 38.707031 C 32.21875 37.574219 33.980469 36.140625 35.480469 34.453125 C 37.984375 31.628906 39.476562 28.480469 40.585938 25.6875 C 40.59375 25.683594 40.597656 25.683594 40.601562 25.679688 C 43.597656 25.800781 45.414062 24.644531 46.390625 23.679688 C 47.007812 23.09375 47.492188 22.382812 47.804688 21.59375 L 48 21.023438 L 47.527344 20.652344 C 47.398438 20.546875 46.183594 19.632812 43.621094 19.632812 C 42.941406 19.636719 42.265625 19.695312 41.601562 19.808594 C 41.105469 16.421875 38.292969 14.769531 38.167969 14.695312 Z M 4.5 18 C 4.222656 18 4 18.222656 4 18.5 L 4 21.5 C 4 21.777344 4.222656 22 4.5 22 L 7.5 22 C 7.777344 22 8 21.777344 8 21.5 L 8 18.5 C 8 18.222656 7.777344 18 7.5 18 Z M 10.5 18 C 10.222656 18 10 18.222656 10 18.5 L 10 21.5 C 10 21.777344 10.222656 22 10.5 22 L 13.5 22 C 13.777344 22 14 21.777344 14 21.5 L 14 18.5 C 14 18.222656 13.777344 18 13.5 18 Z M 16.5 18 C 16.222656 18 16 18.222656 16 18.5 L 16 21.5 C 16 21.777344 16.222656 22 16.5 22 L 19.5 22 C 19.777344 22 20 21.777344 20 21.5 L 20 18.5 C 20 18.222656 19.777344 18 19.5 18 Z M 22.5 18 C 22.222656 18 22 18.222656 22 18.5 L 22 21.5 C 22 21.777344 22.222656 22 22.5 22 L 25.5 22 C 25.777344 22 26 21.777344 26 21.5 L 26 18.5 C 26 18.222656 25.777344 18 25.5 18 Z M 28.5 18 C 28.222656 18 28 18.222656 28 18.5 L 28 21.5 C 28 21.777344 28.222656 22 28.5 22 L 31.5 22 C 31.777344 22 32 21.777344 32 21.5 L 32 18.5 C 32 18.222656 31.777344 18 31.5 18 Z M 28.5 18 "/>
</g>
</svg>
